<?xml version="1.0" encoding="utf-8"?>
<!-- Generator: Adobe Illustrator 22.0.1, SVG Export Plug-In . SVG Version: 6.00 Build 0)  -->
<svg version="1.1" id="Layer_1" xmlns="http://www.w3.org/2000/svg" xmlns:xlink="http://www.w3.org/1999/xlink" x="0px" y="0px"
	 viewBox="0 0 2500 700" style="enable-background:new 0 0 2500 700;" xml:space="preserve">
<style type="text/css">
	.st0{fill:#CD1719;}
	.st1{font-family:'Karantina-Bold';}
	.st2{font-size:40px;}
	.st3{fill:none;}
	.st4{fill:#1E1E1C;}
	.st5{font-family:'BarlowSemiCondensed-Light';}
	.st6{font-size:18.5px;}
	.st7{fill:#EDEDED;}
	.st8{font-family:'BarlowSemiCondensed-SemiBold';}
	.st9{fill:#585856;}
</style>
<g>
	<g>
		<g>
			<g>
				<text transform="matrix(1 0 0 1 1169.502 92.9868)" class="st0 st1 st2">Movimientos</text>
			</g>
		</g>
	</g>
	<g>
		<rect x="1000" y="161.7" class="st3" width="500" height="132.9"/>
		<text transform="matrix(1 0 0 1 1028.1705 174.6537)"><tspan x="0" y="0" class="st4 st5 st6">En la actualidad, se compite completando las dos técnicas. Los </tspan><tspan x="-27.5" y="22.2" class="st4 st5 st6">deportistas tienen tres oportunidades de levantar la mayor cantidad de </tspan><tspan x="-3" y="44.4" class="st4 st5 st6">peso en cada uno de los movimientos, los que se suman y el que </tspan><tspan x="102.7" y="66.6" class="st4 st5 st6">obtenga el número más alto gana.</tspan><tspan x="66.2" y="111" class="st4 st5 st6">El competidor que deja caer la barra, pierde.</tspan></text>
	</g>
	<rect x="1257.5" y="331.5" class="st7" width="400" height="240"/>
	<rect x="842.5" y="331.5" class="st7" width="400" height="240"/>
	<rect x="1257.5" y="591" class="st3" width="400" height="64.1"/>
	<text transform="matrix(1 0 0 1 1266.5645 603.9315)"><tspan x="0" y="0" class="st4 st5 st6">La segunda técnica es el </tspan><tspan x="176.8" y="0" class="st4 st8 st6">envión</tspan><tspan x="226" y="0" class="st4 st5 st6"> o </tspan><tspan x="242.1" y="0" class="st4 st8 st6">dos tiempos</tspan><tspan x="332.2" y="0" class="st4 st5 st6"> y debe </tspan><tspan x="12.6" y="22.2" class="st4 st5 st6">elevar la barra hasta el pecho y luego pasarla hacia </tspan><tspan x="122.7" y="44.4" class="st4 st5 st6">arriba de la cabeza.</tspan></text>
	<rect x="842.5" y="591" class="st3" width="400" height="64.1"/>
	<text transform="matrix(1 0 0 1 865.522 603.9315)"><tspan x="0" y="0" class="st4 st5 st6">La primera técnica es el </tspan><tspan x="172.4" y="0" class="st4 st8 st6">arranque</tspan><tspan x="239.1" y="0" class="st4 st5 st6"> que consiste en </tspan><tspan x="-4.6" y="22.2" class="st4 st5 st6">levantar la barra por encima de la cabeza de un solo </tspan><tspan x="108.2" y="44.4" class="st4 st5 st6">jalón o movimiento. </tspan></text>
	<g>
		
			<ellipse transform="matrix(0.9987 -5.118536e-02 5.118536e-02 0.9987 -17.5028 50.8611)" class="st0" cx="984.3" cy="367.2" rx="18.7" ry="23.8"/>
		<g>
			<line class="st9" x1="1118.3" y1="362.3" x2="1135.9" y2="361.7"/>
			<path class="st0" d="M1118.3,365.2c-1.6,0-2.8-1.2-2.9-2.8c-0.1-1.6,1.2-2.9,2.8-3l17.6-0.6c1.6-0.1,2.9,1.2,3,2.8
				c0.1,1.6-1.2,2.9-2.8,3l-17.6,0.6C1118.4,365.2,1118.3,365.2,1118.3,365.2z"/>
		</g>
		<g>
			<line class="st9" x1="985.8" y1="366.9" x2="1113.3" y2="362.5"/>
			
				<rect x="985.8" y="363.4" transform="matrix(0.9994 -3.425529e-02 3.425529e-02 0.9994 -11.8761 36.1673)" class="st0" width="127.5" height="2.5"/>
		</g>
		<path class="st9" d="M1086.4,359.8c-1.9-0.1-3.4-1.3-3.7-0.8c-0.3,0.4-1.5-0.3-1.9,0.1s-0.9-0.3-1.7,0.2c-0.8,0.5-0.6,1.7-0.6,1.7
			s-1.3,0.4-2.3,1.6c-1,1.2,0.4,2.2,0.7,3.5c0.3,1.3,0.1,3.3-1.4,4.9s-10,8.4-12.4,11.6c-2.4,3.2-3.2,4.6-3.2,4.6s-5.1,3.3-7.3,6.3
			c-2.2,3-2.8,4.9-2.8,4.9s-2.7-1.2-5.9,2.4l-3-1l-0.9-3.4c2.4-4,3.1-10.4,0.9-14.6c-2.2-4.1-8.2-5.2-10.7-5.1
			c-2.5,0.1-6.3,1.5-8.1,3.8c-1.8,2.2-1.5,3.7-2.2,4.3c-0.7,0.7-0.2,2-0.2,2s-0.1,2.4,0.4,3.8c0.5,1.4,0.3,1.2,0.3,1.9
			c0,0.7,1.3,2.1,1.3,2.1l-0.2,2.2c0,0-3.9-4.3-5.8-6.6s-1.7-4.3-5.5-8c-3.8-3.7-6.9-6-8-8.5c-1.2-2.6-1.3-2.8-0.5-3.4
			c0.8-0.6,2.4-2.9,2.4-2.9s-1.4-0.1-2.2-0.2c-0.8-0.1-1.3-2.2-0.1-2.2c1.3,0,2.2,0,2.2,0s-0.4-1.9-1.3-2.5c-0.9-0.6-2-0.8-3.1-0.6
			c-1.1,0.2-1.3,1.5-2.2,1.9c-0.9,0.4-1,0.5-1,1.1c0.1,0.6,0.9,0.6,0.9,0.6l0.1,0.7c0,0-1.5,1.8-2.2,3.5c-0.8,1.7-0.3,2.9,0.5,3.4
			c0.8,0.5,2.2,4.2,4.3,9.1s4.4,8.9,6.3,10.3c1.9,1.4,2.2,2.5,4.2,5.8s2.9,5.8,6.2,8.3c3.3,2.5,4.3,1.8,4.2,4.1
			c-0.1,2.3-2.9,7-4.2,9.3c-1.3,2.2,0.4,6.7,3.6,8.5c0,0,1.1,10.5,2.6,17.2c1.5,6.7,2.4,11.4,2.2,14.3c-0.3,2.8,0.3,2.2-0.4,5.3
			s-4.4,10.5-3.9,21.1c0.5,10.5,2.8,8.4,3.6,12.7c0.8,4.4,0.3,5.3,0.6,7.5c0.4,2.2-1.8,9.3-1.2,17.5c0.6,8.2,0.1,13.2-0.9,14.5
			c-1,1.3-2.2,1.4-2.8,2.7c-0.6,1.3-1.7,1.9-2.2,2.3c-0.5,0.4-2.3,0.8-3.6,1.5c-1.3,0.8-2.3,0.8-3.7,1.3c-1.4,0.5-2.8,0.6-3,2.2
			s-1.2,3.1,3.6,3.2c4.8,0.1,9.9-2.1,13.9-1.8s7.3,0.1,8-1.2c0.6-1.3,0.6-0.9,0.1-4s-1-3.3-1.2-4.5c-0.1-1.2-1-1.2-1-1.2
			s0-6.9,1.9-11.7c1.9-4.8,3.9-7.8,4-13c0.1-5.1-1.4-9.5-1.4-9.5s1-0.1,2.8-6.8c1.8-6.7,1.7-6.8,2.2-9.5c0.5-2.7,1.2-5,1.2-5
			s1.4,7.7,3.5,14.6c2.1,6.9,4,5.3,5,8c1,2.7,3.1,7.2,3.2,11.2s1.5,9.5,3,15.2c1.4,5.7,2.2,10.2,1.9,11.8c-0.3,1.7-0.3,1.7-0.3,1.7
			s-0.4,2.1-0.6,3.7s-0.8,2.6-1.9,4.6c-1.2,2.1-2.7,2.4-3.5,4.4c-0.8,1.9-0.8,4.6,1.9,4.8c2.7,0.1,9.3,0.1,10.4-1.5s1.4-3.3,2.6-4.2
			c1.2-0.9,1.5-1.4,0.9-3.1c-0.6-1.7,0.5-0.4-0.6-3.2c-1.2-2.8-1-2.2-1.2-4c-0.1-1.8-1-1.8-1-1.8s-0.4-5.5,0.9-10.8
			c1.3-5.3,2.1-15.9-0.5-20.4c-2.6-4.5-4.2-9.4-3.9-17.2c0.4-7.8,0.5-20.8-0.4-24.2c0,0,2.1-8.1-4-17.7c-6-9.6-7.3-9.3-7.2-16.8
			s0.1-11.6,2.2-14.3s2.4-3.3,2.6-7.2c0.1-3.9,1.7-8.4,5-12.7c3.3-4.4,1.9-6.7,3.9-9.1c1.9-2.4,3.9-5,5.1-6c1.3-1,5.7-5.4,9.1-10.8
			c3.5-5.4,3.6-7.2,5.3-8.2c1.7-1,4.6-0.6,4.9-4C1088.2,363.1,1088.2,359.9,1086.4,359.8z M1086.4,364.7c0,0.1-5.2,0.1-5.2,0.1
			c-0.7-2-2.3-2-2.3-2l0.3-0.4l0.6,0.2c0,0,0.5,0.6,1.4,0.4s3.1-2.3,3.1-2.3l1.9,0.4C1086.3,361.1,1086.4,364.5,1086.4,364.7z"/>
		
			<ellipse transform="matrix(0.9998 -2.089861e-02 2.089861e-02 0.9998 -7.3409 23.1082)" class="st0" cx="1101.9" cy="362.8" rx="19.8" ry="28.9"/>
	</g>
	<g>
		
			<ellipse transform="matrix(0.974 -0.2264 0.2264 0.974 -47.8119 330.7224)" class="st0" cx="1418.1" cy="373.8" rx="18.5" ry="21.5"/>
		<path class="st0" d="M1535.9,356.3c-0.2-1.5-1.6-2.6-3.1-2.3l-5.5,0.8c-3.3-13.3-13.8-22.3-24.7-20.6
			c-11.2,1.7-18.7,14.3-17.2,28.4l-65.1,9.6l0.4,2.4l65.1-9.6c2.5,14.5,13.7,24.8,25.2,23c11-1.7,18.4-13.8,17.3-27.7l5.4-0.8
			C1535.1,359.2,1536.2,357.8,1535.9,356.3z"/>
		<path class="st9" d="M1459.1,411.6l-1.7-2.6c0,0,1.8-1.7,2.2-5.7c0.3-4-2-10-5.3-11.2c-3.3-1.2-4.1-0.2-5.5-0.5
			c-1.4-0.3-2.5-0.5-2.9-0.3c-0.5,0.2-0.7-1.8-2.5-5.4c-1.8-3.6-3.5-7.3-3.8-9.4c-0.3-2,1-2.8,1.3-3c0.3-0.1,2.8-0.6,3.4-1.5
			c0.6-0.9,0.3-1.2,0.3-1.2l-2.1,0.3c0,0-1-1.4-0.6-2c0.3-0.4,2.3-0.7,2.3-0.7s0.4-1.1-0.4-1.1s-1.5,0-2.3-0.6s-1.3-0.6-1.6-0.5
			s-1.4,1.2-1.4,1.6c-0.1,0.4,0.1,1.6-0.8,1.8c-0.9,0.2-1.4,0.3-1.7,0.9c-0.4,0.6-0.6,0.9-1.2,1.4c-0.6,0.4-1.1,0.9-0.4,2
			s0.7,1.8,1.5,7.6c0.8,5.8,3.6,15.4,3.6,15.4s-0.3,0.7-1,1.7c-0.7,1-0.1,1.4-0.1,1.4s-0.7,1.3-0.3,3.3s0.6,2.7,0.7,3.4
			c0.2,0.7,1.5,0.5,1.4,1.5c0,1.8,0.3,2.7,0.4,2.3c0,0-0.2,0.3-0.2,0.9s0.5,0.6,1.1,0.6s0.5,0.4,0.5,0.8c0,0.4,0.6,0.8,0.6,0.8
			s-0.6,0.7,0,1.1c0.7,0.4,0.6,0.2,0.9,0.8c0.3,0.6,0.6,1.3,0.7,1.8s1.1,0.3,1.1,0.3s0.1,0.7-0.3,1.4s-0.6,2.7-2.1,4.8
			s-3.4,5.8-4.4,8.3c-1,2.5,0.1,5.7,2.3,7.4c0,0-0.4,5.5,1.5,13.9c2,8.4,4.2,12.4,4.3,15.5c0.1,3.1-2.5,7.1-2.7,11.6
			c-0.2,4.4-0.6,11.3,0.6,16.1s2.7,5.1,3.5,8.6c0.7,3.6,0.5,4.8,1,6.4c0.5,1.6-1,4.2,0,13.3c1,9.1,1.2,13.9,0.2,16
			c-1,2.1-3.1,2.2-3.6,3.3c-0.5,1.1-0.7,1-2,2.1s-0.5,1.7-2.8,2.2c-2.3,0.5-2.3,0.5-3.6,0.9c-1.2,0.4-1.4,1-1.4,2.3s0.7,2.6,2.8,2.6
			c2.1,0,5.9,0,9.1-1.1c3.2-1.1,6.7-1.2,8.5-1.4c1.8-0.1,3.5-0.1,3.1-2.2s-0.7-3.7-1.4-5.3c-0.6-1.6-1.2-2.2-1.2-2.2
			s-0.7-6.8,1.5-12.7c2.2-5.9,2.6-10.8,1.5-15c-1.1-4.2-1.2-4.6-1.2-4.6s2.1-3.1,2.2-6c0,0,1.2,4.4,2,5.5c0.7,1.1,2.8,3.6,3,4.8
			c0.1,1.2,1,2.1,1.4,3.8s1.7,6.7,1.6,9.7c-0.1,3.1,0.4,7.5,0.7,10.5s0.5,8.6-0.4,9.9s-2.2,3-2.8,3.7c-0.6,0.7-2.3,2.2-3.3,3
			c-1,0.7-1.6,1.2-1.6,1.2s-0.6,0-2.8,1.1s-3,1.2-3,2.7c0,1.5,0.6,3.8,5.8,3.9s9-0.1,10.5-1.8c1.5-1.7,5.2-0.7,6.3-1.7
			s1.4-2.2,1-3.6c-0.4-1.4-0.5-1.8-0.7-2.8c-0.2-1,0-1.6-0.5-2.6c-0.5-1-2.3-2.1-2.3-2.1s2.2-6.5,3.7-13.9
			c1.5-7.4,1.5-11.8-0.5-16.5s-3.7-9.1-3.2-12.4c0.5-3.3,1.2-9.7,1.1-16.4c-0.1-6.7,0-7.8,0-7.8s2.6-4.1,1.1-9.9s-7.2-11.9-8.3-13.9
			c-5-9.1-2.3-21.3-2.2-22.4c0.1-1.1,2.7-6.4,2.5-9.4c-0.2-3-0.1-2.7,0.1-4.3c0.2-1.6,2.1-2.6,1.8-6.3c-0.2-3.7-0.6-4.9-0.6-4.9
			s1.5-1.7,0.6-6.5c-0.8-4.8,0.3-7.6,0.4-10.8s0.1-3.2,0.1-3.2s2.1-3.3,2.6-11.6c0.5-8.3,0.8-9.5,2.2-9.7s4.1,0,4.4-1.1
			c0.4-1.1,0.6-2.6,0.6-2.6l-2.4,0.3c0,0-0.9-0.9-1.6-1s-2.3,0.1-2.3,0.1s1.3-0.4,1.6-0.8c0.3-0.4,1.2-0.5,1.2-0.5l2.7-0.4l-0.6-0.8
			c0,0-0.7-0.5-1.8-0.6c-1.1,0-1.1,0-1.7-0.2c-0.6-0.2-1.7,0.4-1.7,0.4s0.1-0.8-0.5-1.2s-0.4,0.5-1.7,0.9c-1.3,0.3-1.8,1.9-2.2,2.6
			s-0.6,1.5,0,2.4c0.6,0.9,0.5,2.2,0.2,3.1c-0.3,0.8-1.6,6.2-4,10.9s-2.6,8.6-2.6,8.6s-1.2,0.9-1.2,4.3c0.1,3.4-1.3,8.8-1.4,11.7
			c-0.1,2.9-0.4,4.6-0.4,4.6L1459.1,411.6z"/>
	</g>
</g>
</svg>
