<?xml version="1.0" encoding="utf-8"?>
<!-- Generator: Adobe Illustrator 22.0.1, SVG Export Plug-In . SVG Version: 6.00 Build 0)  -->
<svg version="1.1" id="Layer_1" xmlns="http://www.w3.org/2000/svg" xmlns:xlink="http://www.w3.org/1999/xlink" x="0px" y="0px"
	 viewBox="0 0 868 2342" style="enable-background:new 0 0 868 2342;" xml:space="preserve">
<style type="text/css">
	.st0{opacity:7.000000e-02;fill:#1D1D1B;}
	.st1{opacity:0.3;fill:none;stroke:#1D1D1B;stroke-miterlimit:10;}
	.st2{opacity:0.5;}
	.st3{fill:#FFFFFF;}
	.st4{opacity:0.6;fill:#1D1D1B;}
</style>
<rect x="52.9" y="50" class="st0" width="746.8" height="2226.4"/>
<line class="st1" x1="301.9" y1="26" x2="301.9" y2="2298"/>
<line class="st1" x1="52.9" y1="26" x2="52.9" y2="2298"/>
<line class="st1" x1="799.9" y1="26" x2="799.9" y2="2298"/>
<line class="st1" x1="550.9" y1="26" x2="550.9" y2="2298"/>
<g>
	<path d="M369.3,75.5v-14h1v13.1h6.3v0.9H369.3z"/>
	<path d="M384.6,75.5l-0.2-1.4c-0.6,0.8-1.8,1.6-3.2,1.6c-2.1,0-3.2-1.4-3.2-3c0-1.7,1.2-2.8,3.5-2.8h2.9v-1c0-2-0.8-2.9-2.5-2.9
		c-1.3,0-2.4,0.4-3.1,0.7l-0.3-0.8c0.7-0.3,1.8-0.7,3.5-0.7c2.2,0,3.4,1.2,3.4,3.5v6.8H384.6z M384.3,70.6h-2.8c-2,0-2.6,0.9-2.6,2
		c0,1.3,0.7,2.3,2.4,2.3c1.2,0,2.3-0.7,2.9-1.6V70.6z"/>
	<path d="M400.7,75.5v-6.6h-6.9v6.6h-1v-14h1V68h6.9v-6.5h1.1v14H400.7z"/>
	<path d="M411,75.5l-0.2-1.4c-0.6,0.8-1.8,1.6-3.2,1.6c-2.1,0-3.2-1.4-3.2-3c0-1.7,1.2-2.8,3.5-2.8h2.9v-1c0-2-0.8-2.9-2.5-2.9
		c-1.3,0-2.4,0.4-3.1,0.7l-0.3-0.8c0.7-0.3,1.8-0.7,3.5-0.7c2.2,0,3.4,1.2,3.4,3.5v6.8H411z M410.7,70.6H408c-2,0-2.6,0.9-2.6,2
		c0,1.3,0.7,2.3,2.4,2.3c1.2,0,2.3-0.7,2.9-1.6V70.6z"/>
	<path d="M414.7,73.7V61.2h1v12.4c0,0.8,0.3,1.3,1.3,1.3l0.7,0v0.6c0,0-0.4,0.1-0.8,0.1C415.4,75.7,414.7,75,414.7,73.7z"/>
	<path d="M422.9,75.7c-1.2,0-2.4-0.5-2.4-2.7v-7H419v-0.7h1.6v-1.9l1-0.3v2.2h3.1v0.7h-3.1v7c0,1.3,0.4,1.8,1.5,1.8
		c0.6,0,1.4-0.3,1.7-0.5l0.2,0.7C424.7,75.4,423.7,75.7,422.9,75.7z"/>
	<path d="M427.8,70.7c0,2.9,1.5,4.2,3.5,4.2c1.5,0,2.7-0.7,3.3-1.1l0.3,0.7c-0.9,0.5-2.1,1.2-3.6,1.2c-2.6,0-4.5-1.8-4.5-5.4
		c0-3.3,1.6-5.2,4.2-5.2c2.8,0,3.9,2.3,3.9,4.8v0.7H427.8z M431,65.9c-2.2,0-3.1,2-3.1,4h6.1C433.9,67.9,433.2,65.9,431,65.9z"/>
	<path d="M442.4,66.3c-0.2-0.1-0.7-0.2-1.3-0.2c-1.1,0-1.9,0.7-2.5,1.3v8.1h-1V65.4h0.7l0.3,1.2c0.5-0.5,1.4-1.4,2.7-1.4
		c0.8,0,1.3,0.2,1.3,0.2L442.4,66.3z"/>
	<path d="M448.1,75.7c-2.6,0-4.1-1.9-4.1-5.3c0-3,1.3-5.2,4.1-5.2c2.7,0,4.2,2.2,4.2,5.2C452.3,73.8,450.7,75.7,448.1,75.7z
		 M448.1,65.9c-2.2,0-3.1,1.8-3.1,4.5c0,2.6,0.7,4.5,3.1,4.5c2.3,0,3.1-1.7,3.1-4.5C451.3,67.7,450.3,65.9,448.1,65.9z"/>
	<path d="M461.4,75.5v-9.3h-4.6v9.3h-1v-9.3h-1.7v-0.8h1.7v-1c0-2.3,1-3.5,3.1-3.5c0.5,0,0.9,0.1,1.4,0.2v0.8
		c-0.3-0.1-0.9-0.2-1.3-0.2c-1.6,0-2.2,0.9-2.2,2.8v0.9h5.5v10.1H461.4z M461.3,61.4h1.1v1.3h-1.1V61.4z"/>
	<path d="M465.4,73.7V61.2h1v12.4c0,0.8,0.3,1.3,1.3,1.3l0.7,0v0.6c0,0-0.4,0.1-0.8,0.1C466.1,75.7,465.4,75,465.4,73.7z"/>
	<path d="M471.2,75.5v-9.3l-1.1-0.2v-0.7h2.1v10.1H471.2z M471.1,61.4h1.1v1.3h-1.1V61.4z"/>
	<path d="M481.4,75.5l-0.2-1.4c-0.6,0.8-1.8,1.6-3.2,1.6c-2.1,0-3.2-1.4-3.2-3c0-1.7,1.2-2.8,3.5-2.8h2.9v-1c0-2-0.8-2.9-2.5-2.9
		c-1.3,0-2.4,0.4-3.1,0.7l-0.3-0.8c0.7-0.3,1.8-0.7,3.5-0.7c2.2,0,3.4,1.2,3.4,3.5v6.8H481.4z M481.1,70.6h-2.8c-2,0-2.6,0.9-2.6,2
		c0,1.3,0.7,2.3,2.4,2.3c1.2,0,2.3-0.7,2.9-1.6V70.6z"/>
</g>
<g>
	<path d="M403.2,466.9v-6.6h-6.9v6.6h-1v-14h1v6.5h6.9v-6.5h1.1v14H403.2z"/>
	<path d="M408,466.9v-9.3l-1.1-0.2v-0.7h2.1v10.1H408z M407.8,452.8h1.1v1.3h-1.1V452.8z"/>
	<path d="M420.3,457.5c0,0-1.1,0.1-1.9,0.1c-1.3,0-2.7-0.3-3.8-0.3c-1.4,0-2.2,0.7-2.2,1.8c0,2.4,5.3,1.6,5.3,5.1
		c0,1.5-1.2,2.9-3.3,2.9c-1.2,0-2.3-0.5-3-1l0.4-0.8c0.6,0.4,1.6,1,2.7,1c1.4,0,2.3-0.8,2.3-2.1c0-2.8-5.3-1.7-5.3-5.1
		c0-1.3,1-2.6,3.1-2.6c1.6,0,2.5,0.3,4.1,0.3c0.6,0,1.6-0.1,1.6-0.1v-1.9l1-0.3v2.2h3.1v0.7h-3.1v6.9c0,1.3,0.4,1.9,1.5,1.9
		c0.6,0,1.4-0.3,1.7-0.5l0.2,0.7c-0.3,0.2-1.2,0.6-2,0.6c-1.2,0-2.4-0.5-2.4-2.7V457.5z"/>
	<path d="M430.7,467.1c-2.6,0-4.1-1.9-4.1-5.3c0-3,1.3-5.2,4.1-5.2c2.7,0,4.2,2.2,4.2,5.2C434.9,465.2,433.2,467.1,430.7,467.1z
		 M430.7,457.3c-2.2,0-3.1,1.8-3.1,4.5c0,2.6,0.7,4.5,3.1,4.5c2.3,0,3.1-1.7,3.1-4.5C433.8,459,432.9,457.3,430.7,457.3z"/>
	<path d="M442.3,457.6c-0.2-0.1-0.7-0.2-1.3-0.2c-1.1,0-1.9,0.7-2.5,1.3v8.1h-1v-10.1h0.7l0.3,1.2c0.5-0.5,1.4-1.4,2.7-1.4
		c0.8,0,1.3,0.2,1.3,0.2L442.3,457.6z"/>
	<path d="M445.1,466.9v-9.3l-1.1-0.2v-0.7h2.1v10.1H445.1z M444.9,452.8h1.1v1.3h-1.1V452.8z"/>
	<path d="M455.2,466.9l-0.2-1.4c-0.6,0.8-1.8,1.6-3.2,1.6c-2.1,0-3.2-1.4-3.2-3c0-1.7,1.2-2.8,3.5-2.8h2.9v-1c0-2-0.8-2.9-2.5-2.9
		c-1.3,0-2.4,0.4-3.1,0.7l-0.3-0.8c0.7-0.3,1.8-0.7,3.5-0.7c2.2,0,3.4,1.2,3.4,3.5v6.8H455.2z M454.9,462h-2.8c-2,0-2.6,0.9-2.6,2
		c0,1.3,0.7,2.3,2.4,2.3c1.2,0,2.3-0.7,2.9-1.6V462z"/>
</g>
<g>
	<path d="M385,894.4l-0.4-13.1h0l-1.1,3.4l-3.3,9.7H379l-3.2-9.9l-1.1-3.3h0l-0.5,13.1h-1l0.5-14h1.9l4.1,12.8h0l4.2-12.8h1.8
		l0.5,14H385z"/>
	<path d="M393,894.6c-2.6,0-4.1-1.9-4.1-5.3c0-3,1.3-5.2,4.1-5.2c2.7,0,4.2,2.2,4.2,5.2C397.2,892.7,395.6,894.6,393,894.6z
		 M393,884.8c-2.2,0-3.1,1.8-3.1,4.5c0,2.6,0.7,4.5,3.1,4.5c2.3,0,3.1-1.7,3.1-4.5C396.1,886.6,395.2,884.8,393,884.8z"/>
	<path d="M403.5,894.4H402l-3.4-10.1h1.1l3,9.5h0l3-9.5h1.1L403.5,894.4z"/>
	<path d="M409.4,894.4v-9.3l-1.1-0.2v-0.7h2.1v10.1H409.4z M409.3,880.3h1.1v1.3h-1.1V880.3z"/>
	<path d="M419.6,894.4v-6.2c0-2.1-0.6-3.3-2.5-3.3c-1.2,0-2.1,0.7-2.8,1.4v8.1h-1v-10.1h0.7l0.3,1.2c0.6-0.6,1.6-1.5,3.1-1.5
		c1.4,0,2.4,0.6,2.9,1.6c0.6-0.6,1.7-1.6,3.2-1.6c2.3,0,3.5,1.3,3.5,3.9v6.5h-1v-6.2c0-2.2-0.8-3.3-2.7-3.3c-1.1,0-2.1,0.7-2.8,1.4
		c0.1,0.5,0.2,1,0.2,1.6v6.5H419.6z"/>
	<path d="M430.4,894.4v-9.3l-1.1-0.2v-0.7h2.1v10.1H430.4z M430.2,880.3h1.1v1.3h-1.1V880.3z"/>
	<path d="M434.9,889.6c0,2.9,1.5,4.2,3.5,4.2c1.5,0,2.7-0.7,3.3-1.1l0.3,0.7c-0.9,0.5-2.1,1.2-3.6,1.2c-2.6,0-4.5-1.8-4.5-5.4
		c0-3.3,1.6-5.2,4.2-5.2c2.8,0,3.9,2.3,3.9,4.8v0.7H434.9z M438,884.8c-2.2,0-3.1,2-3.1,4h6.1C441,886.8,440.3,884.8,438,884.8z"/>
	<path d="M451,894.4v-6.2c0-2.1-0.6-3.3-2.6-3.3c-1.2,0-2.2,0.7-2.8,1.4v8.1h-1v-10.1h0.7l0.3,1.2c0.6-0.6,1.6-1.4,3.2-1.4
		c2.3,0,3.4,1.4,3.4,3.9v6.5H451z"/>
	<path d="M458,894.6c-1.2,0-2.4-0.5-2.4-2.7v-7H454v-0.7h1.6v-1.9l1-0.3v2.2h3.1v0.7h-3.1v7c0,1.3,0.4,1.8,1.5,1.8
		c0.6,0,1.4-0.3,1.7-0.5l0.2,0.7C459.7,894.3,458.8,894.6,458,894.6z"/>
	<path d="M466,894.6c-2.6,0-4.1-1.9-4.1-5.3c0-3,1.3-5.2,4.1-5.2c2.7,0,4.2,2.2,4.2,5.2C470.1,892.7,468.5,894.6,466,894.6z
		 M466,884.8c-2.2,0-3.1,1.8-3.1,4.5c0,2.6,0.7,4.5,3.1,4.5c2.3,0,3.1-1.7,3.1-4.5C469.1,886.6,468.1,884.8,466,884.8z"/>
	<path d="M473.3,886.6c0,2.4,5.3,1.6,5.3,5.1c0,1.5-1.2,2.9-3.3,2.9c-1.3,0-2.4-0.5-3.1-1l0.4-0.8c0.6,0.4,1.7,1,2.7,1
		c1.4,0,2.3-0.8,2.3-2.1c0-2.8-5.3-1.7-5.3-5.1c0-1.3,1-2.6,3.1-2.6c1.1,0,2.2,0.2,3.1,0.7l-0.3,0.8c-0.8-0.5-1.7-0.7-2.8-0.7
		C474,884.9,473.3,885.5,473.3,886.6z"/>
</g>
<g>
	<path d="M333.8,1360.8v-14h7.3v0.9h-6.3v5.5h5l-0.2,0.9h-4.8v5.8h6.3v0.9H333.8z"/>
	<path d="M343.6,1359v-12.5h1v12.4c0,0.8,0.3,1.3,1.3,1.3l0.7,0v0.6c0,0-0.4,0.1-0.8,0.1C344.3,1361,343.6,1360.2,343.6,1359z"/>
	<path d="M349.3,1356c0,2.9,1.5,4.2,3.5,4.2c1.5,0,2.7-0.7,3.3-1.1l0.3,0.7c-0.9,0.5-2.1,1.2-3.6,1.2c-2.6,0-4.5-1.8-4.5-5.4
		c0-3.3,1.6-5.2,4.2-5.2c2.8,0,3.9,2.3,3.9,4.8v0.7H349.3z M352.5,1351.2c-2.2,0-3.1,2-3.1,4h6.1
		C355.4,1353.2,354.7,1351.2,352.5,1351.2z"/>
	<path d="M365.3,1360.8v-6.2c0-2.1-0.6-3.3-2.5-3.3c-1.2,0-2.1,0.7-2.8,1.4v8.1h-1v-10.1h0.7l0.3,1.2c0.6-0.6,1.6-1.5,3.1-1.5
		c1.4,0,2.4,0.6,2.9,1.6c0.6-0.6,1.7-1.6,3.2-1.6c2.3,0,3.5,1.3,3.5,3.9v6.5h-1v-6.2c0-2.2-0.8-3.3-2.7-3.3c-1.1,0-2.1,0.7-2.8,1.4
		c0.1,0.5,0.2,1,0.2,1.6v6.5H365.3z"/>
	<path d="M376,1356c0,2.9,1.5,4.2,3.5,4.2c1.5,0,2.7-0.7,3.3-1.1l0.3,0.7c-0.9,0.5-2.1,1.2-3.6,1.2c-2.6,0-4.5-1.8-4.5-5.4
		c0-3.3,1.6-5.2,4.2-5.2c2.8,0,3.9,2.3,3.9,4.8v0.7H376z M379.1,1351.2c-2.2,0-3.1,2-3.1,4h6.1
		C382.1,1353.2,381.4,1351.2,379.1,1351.2z"/>
	<path d="M392.1,1360.8v-6.2c0-2.1-0.6-3.3-2.6-3.3c-1.2,0-2.2,0.7-2.8,1.4v8.1h-1v-10.1h0.7l0.3,1.2c0.6-0.6,1.6-1.4,3.2-1.4
		c2.3,0,3.4,1.4,3.4,3.9v6.5H392.1z"/>
	<path d="M399,1361c-1.2,0-2.4-0.5-2.4-2.7v-7h-1.6v-0.7h1.6v-1.9l1-0.3v2.2h3.1v0.7h-3.1v7c0,1.3,0.4,1.8,1.5,1.8
		c0.6,0,1.4-0.3,1.7-0.5l0.2,0.7C400.8,1360.7,399.8,1361,399,1361z"/>
	<path d="M407,1361c-2.6,0-4.1-1.9-4.1-5.3c0-3,1.3-5.2,4.1-5.2c2.7,0,4.2,2.2,4.2,5.2C411.2,1359.1,409.6,1361,407,1361z
		 M407,1351.2c-2.2,0-3.1,1.8-3.1,4.5c0,2.6,0.7,4.5,3.1,4.5c2.3,0,3.1-1.7,3.1-4.5C410.1,1352.9,409.2,1351.2,407,1351.2z"/>
	<path d="M414.3,1353c0,2.4,5.3,1.6,5.3,5.1c0,1.5-1.2,2.9-3.3,2.9c-1.3,0-2.4-0.5-3.1-1l0.4-0.8c0.6,0.4,1.7,1,2.7,1
		c1.4,0,2.3-0.8,2.3-2.1c0-2.8-5.3-1.7-5.3-5.1c0-1.3,1-2.6,3.1-2.6c1.1,0,2.2,0.2,3.1,0.7l-0.3,0.8c-0.8-0.5-1.7-0.7-2.8-0.7
		C415,1351.3,414.3,1351.9,414.3,1353z"/>
	<path d="M432.9,1360.8l-0.2-1.4c-0.6,0.8-1.8,1.6-3.2,1.6c-2.1,0-3.2-1.4-3.2-3c0-1.7,1.2-2.8,3.5-2.8h2.9v-1c0-2-0.8-2.9-2.5-2.9
		c-1.3,0-2.4,0.4-3.1,0.7l-0.3-0.8c0.7-0.3,1.8-0.7,3.5-0.7c2.2,0,3.4,1.2,3.4,3.5v6.8H432.9z M432.6,1355.9h-2.8
		c-2,0-2.6,0.9-2.6,2c0,1.3,0.7,2.3,2.4,2.3c1.2,0,2.3-0.7,2.9-1.6V1355.9z"/>
	<path d="M443.3,1359.5c-0.7,0.8-1.9,1.5-3,1.5c-2.4,0-4.1-1.9-4.1-5.3c0-3,1.4-5.2,4.2-5.2c1.3,0,2.3,0.4,2.9,0.8l-0.1-1.6v-3.1h1
		v14.3h-0.7L443.3,1359.5z M443.2,1352c-0.5-0.4-1.5-0.8-2.8-0.8c-2.2,0-3.2,1.8-3.2,4.5c0,2.6,0.8,4.5,3.1,4.5c1,0,1.9-0.4,2.9-1.5
		V1352z"/>
	<path d="M447.8,1360.8v-9.3l-1.1-0.2v-0.7h2.1v10.1H447.8z M447.6,1346.7h1.1v1.3h-1.1V1346.7z"/>
	<path d="M458.8,1360.1c-0.6,0.4-1.8,0.9-3.3,0.9c-2.4,0-4.2-1.4-4.2-5.3c0-3.5,1.9-5.3,4.2-5.3c1.1,0,2.3,0.2,3.2,0.8l-0.3,0.8
		c-0.8-0.5-1.8-0.7-2.9-0.7c-2,0-3.2,1.7-3.2,4.4c0,3.1,1.2,4.5,3.3,4.5c1.3,0,2.3-0.4,3-0.9L458.8,1360.1z"/>
	<path d="M461.9,1360.8v-9.3l-1.1-0.2v-0.7h2.1v10.1H461.9z M461.7,1346.7h1.1v1.3h-1.1V1346.7z"/>
	<path d="M469.5,1361c-2.6,0-4.1-1.9-4.1-5.3c0-3,1.3-5.2,4.1-5.2c2.7,0,4.2,2.2,4.2,5.2C473.7,1359.1,472.1,1361,469.5,1361z
		 M469.5,1351.2c-2.2,0-3.1,1.8-3.1,4.5c0,2.6,0.7,4.5,3.1,4.5c2.3,0,3.1-1.7,3.1-4.5C472.6,1352.9,471.7,1351.2,469.5,1351.2z"/>
	<path d="M482.7,1360.8v-6.2c0-2.1-0.6-3.3-2.6-3.3c-1.2,0-2.2,0.7-2.8,1.4v8.1h-1v-10.1h0.7l0.3,1.2c0.6-0.6,1.6-1.4,3.2-1.4
		c2.3,0,3.4,1.4,3.4,3.9v6.5H482.7z"/>
	<path d="M492.7,1360.8l-0.2-1.4c-0.6,0.8-1.8,1.6-3.2,1.6c-2.1,0-3.2-1.4-3.2-3c0-1.7,1.2-2.8,3.5-2.8h2.9v-1c0-2-0.8-2.9-2.5-2.9
		c-1.3,0-2.4,0.4-3.1,0.7l-0.3-0.8c0.7-0.3,1.8-0.7,3.5-0.7c2.2,0,3.4,1.2,3.4,3.5v6.8H492.7z M492.4,1355.9h-2.8
		c-2,0-2.6,0.9-2.6,2c0,1.3,0.7,2.3,2.4,2.3c1.2,0,2.3-0.7,2.9-1.6V1355.9z"/>
	<path d="M496.3,1359v-12.5h1v12.4c0,0.8,0.3,1.3,1.3,1.3l0.7,0v0.6c0,0-0.4,0.1-0.8,0.1C497.1,1361,496.3,1360.2,496.3,1359z"/>
	<path d="M502.1,1356c0,2.9,1.5,4.2,3.5,4.2c1.5,0,2.7-0.7,3.3-1.1l0.3,0.7c-0.9,0.5-2.1,1.2-3.6,1.2c-2.6,0-4.5-1.8-4.5-5.4
		c0-3.3,1.6-5.2,4.2-5.2c2.8,0,3.9,2.3,3.9,4.8v0.7H502.1z M505.2,1351.2c-2.2,0-3.1,2-3.1,4h6.1
		C508.2,1353.2,507.5,1351.2,505.2,1351.2z"/>
	<path d="M512.3,1353c0,2.4,5.3,1.6,5.3,5.1c0,1.5-1.2,2.9-3.3,2.9c-1.3,0-2.4-0.5-3.1-1l0.4-0.8c0.6,0.4,1.7,1,2.7,1
		c1.4,0,2.3-0.8,2.3-2.1c0-2.8-5.3-1.7-5.3-5.1c0-1.3,1-2.6,3.1-2.6c1.1,0,2.2,0.2,3.1,0.7l-0.3,0.8c-0.8-0.5-1.7-0.7-2.8-0.7
		C513,1351.3,512.3,1351.9,512.3,1353z"/>
</g>
<rect x="50.5" y="85.3" class="st2" width="749.8" height="291.3"/>
<rect x="168.2" y="615.8" class="st2" width="507" height="184.8"/>
<rect x="302" y="1132" class="st2" width="248.7" height="122.7"/>
<rect x="172.2" y="909.3" class="st2" width="249.1" height="122.7"/>
<rect x="427.6" y="909.3" class="st2" width="249.1" height="122.7"/>
<rect x="434.1" y="478.7" class="st2" width="115.5" height="79.6"/>
<rect x="301.8" y="385.2" class="st2" width="247.2" height="4.1"/>
<rect x="301.8" y="395.5" class="st2" width="247.2" height="4.1"/>
<rect x="301.8" y="405.9" class="st2" width="247.2" height="4.1"/>
<rect x="301.8" y="416.3" class="st2" width="247.2" height="4.1"/>
<g>
	<rect x="303.3" y="479.1" class="st2" width="121.7" height="4.1"/>
	<rect x="303.3" y="489.4" class="st2" width="121.7" height="4.1"/>
	<rect x="303.3" y="499.8" class="st2" width="121.7" height="4.1"/>
	<rect x="303.3" y="510.2" class="st2" width="121.7" height="4.1"/>
	<rect x="303.3" y="523.3" class="st2" width="121.7" height="4.1"/>
	<rect x="303.3" y="533.6" class="st2" width="121.7" height="4.1"/>
	<rect x="303.3" y="544" class="st2" width="121.7" height="4.1"/>
	<rect x="303.3" y="554.3" class="st2" width="121.7" height="4.1"/>
</g>
<rect x="303.3" y="811.5" class="st2" width="247.2" height="4.1"/>
<rect x="303.3" y="821.9" class="st2" width="247.2" height="4.1"/>
<rect x="303.3" y="832.2" class="st2" width="247.2" height="4.1"/>
<rect x="303.3" y="576.4" class="st2" width="247.2" height="4.1"/>
<rect x="303.3" y="586.8" class="st2" width="247.2" height="4.1"/>
<rect x="303.3" y="597.1" class="st2" width="247.2" height="4.1"/>
<g>
	<path d="M384.7,1117.1v-14h1v13.1h6.3v0.9H384.7z"/>
	<path d="M400,1117.1l-0.2-1.4c-0.6,0.8-1.8,1.6-3.2,1.6c-2.1,0-3.2-1.4-3.2-3c0-1.7,1.2-2.8,3.5-2.8h2.9v-1c0-2-0.8-2.9-2.5-2.9
		c-1.3,0-2.4,0.4-3.1,0.7l-0.3-0.8c0.7-0.3,1.8-0.7,3.5-0.7c2.2,0,3.4,1.2,3.4,3.5v6.8H400z M399.7,1112.2h-2.8c-2,0-2.6,0.9-2.6,2
		c0,1.3,0.7,2.3,2.4,2.3c1.2,0,2.3-0.7,2.9-1.6V1112.2z"/>
	<path d="M416.1,1117.1v-6.6h-6.9v6.6h-1v-14h1v6.5h6.9v-6.5h1.1v14H416.1z"/>
	<path d="M426.4,1117.1l-0.2-1.4c-0.6,0.8-1.8,1.6-3.2,1.6c-2.1,0-3.2-1.4-3.2-3c0-1.7,1.2-2.8,3.5-2.8h2.9v-1c0-2-0.8-2.9-2.5-2.9
		c-1.3,0-2.4,0.4-3.1,0.7l-0.3-0.8c0.7-0.3,1.8-0.7,3.5-0.7c2.2,0,3.4,1.2,3.4,3.5v6.8H426.4z M426.1,1112.2h-2.8
		c-2,0-2.6,0.9-2.6,2c0,1.3,0.7,2.3,2.4,2.3c1.2,0,2.3-0.7,2.9-1.6V1112.2z"/>
	<path d="M430.1,1115.3v-12.5h1v12.4c0,0.8,0.3,1.3,1.3,1.3l0.7,0v0.6c0,0-0.4,0.1-0.8,0.1C430.8,1117.3,430.1,1116.5,430.1,1115.3z
		"/>
	<path d="M438.3,1117.3c-1.2,0-2.4-0.5-2.4-2.7v-7h-1.6v-0.7h1.6v-1.9l1-0.3v2.2h3.1v0.7h-3.1v7c0,1.3,0.4,1.8,1.5,1.8
		c0.6,0,1.4-0.3,1.7-0.5l0.2,0.7C440.1,1117,439.1,1117.3,438.3,1117.3z"/>
	<path d="M443.2,1112.3c0,2.9,1.5,4.2,3.5,4.2c1.5,0,2.7-0.7,3.3-1.1l0.3,0.7c-0.9,0.5-2.1,1.2-3.6,1.2c-2.6,0-4.5-1.8-4.5-5.4
		c0-3.3,1.6-5.2,4.2-5.2c2.8,0,3.9,2.3,3.9,4.8v0.7H443.2z M446.3,1107.5c-2.2,0-3.1,2-3.1,4h6.1
		C449.3,1109.5,448.6,1107.5,446.3,1107.5z"/>
	<path d="M457.7,1107.9c-0.2-0.1-0.7-0.2-1.3-0.2c-1.1,0-1.9,0.7-2.5,1.3v8.1h-1v-10.1h0.7l0.3,1.2c0.5-0.5,1.4-1.4,2.7-1.4
		c0.8,0,1.3,0.2,1.3,0.2L457.7,1107.9z"/>
	<path d="M466,1117.1l-0.2-1.4c-0.6,0.8-1.8,1.6-3.2,1.6c-2.1,0-3.2-1.4-3.2-3c0-1.7,1.2-2.8,3.5-2.8h2.9v-1c0-2-0.8-2.9-2.5-2.9
		c-1.3,0-2.4,0.4-3.1,0.7l-0.3-0.8c0.7-0.3,1.8-0.7,3.5-0.7c2.2,0,3.4,1.2,3.4,3.5v6.8H466z M465.7,1112.2h-2.8c-2,0-2.6,0.9-2.6,2
		c0,1.3,0.7,2.3,2.4,2.3c1.2,0,2.3-0.7,2.9-1.6V1112.2z"/>
</g>
<rect x="303.3" y="1815.8" class="st2" width="247.2" height="4.1"/>
<rect x="303.3" y="1826.1" class="st2" width="247.2" height="4.1"/>
<rect x="303.3" y="1836.5" class="st2" width="247.2" height="4.1"/>
<rect x="303.3" y="1847.5" class="st2" width="247.2" height="4.1"/>
<rect x="303.3" y="1857.9" class="st2" width="247.2" height="4.1"/>
<rect x="303.3" y="1868.3" class="st2" width="247.2" height="4.1"/>
<rect x="303.3" y="2197" class="st2" width="247.2" height="4.1"/>
<rect x="303.3" y="2207.4" class="st2" width="247.2" height="4.1"/>
<rect x="303.4" y="1265.2" class="st2" width="246.7" height="4.1"/>
<rect x="303.4" y="1275.6" class="st2" width="246.7" height="4.1"/>
<rect x="172.2" y="1039.9" class="st2" width="247.2" height="4.1"/>
<rect x="172.2" y="1050.2" class="st2" width="247.2" height="4.1"/>
<rect x="172.2" y="1060.6" class="st2" width="247.2" height="4.1"/>
<rect x="429" y="1039.9" class="st2" width="247.2" height="4.1"/>
<rect x="429" y="1050.2" class="st2" width="247.2" height="4.1"/>
<rect x="429" y="1060.6" class="st2" width="247.2" height="4.1"/>
<g>
	<path class="st3" d="M297.5,978.7c-1.9,0.8-3.1,1.1-4.6,1.1c-3.7,0-5.9-2.9-5.9-7.4c0-4,2.1-7,6.1-7c1.7,0,3,0.4,4.1,1l-0.7,1.2
		c-0.8-0.5-2-0.8-3.4-0.8c-2.9,0-4.5,2.5-4.5,5.6c0,3.6,1.5,6,4.4,6c1.1,0,2-0.1,2.9-0.5V974h-2.3l-0.1-1.3h4V978.7z"/>
	<path class="st3" d="M300.8,979.5v-8.9l-1.1-0.2v-1h2.7v10.1H300.8z M300.7,965.4h1.7v1.7h-1.7V965.4z"/>
	<path class="st3" d="M310.8,966.4c-0.3-0.1-0.8-0.2-1.3-0.2c-1.4,0-2,0.8-2,2.4v0.8h2.4v1.2h-2.4v8.9H306v-8.9h-1.6v-1.2h1.6v-0.9
		c0-2.3,1.1-3.6,3.4-3.6c0.5,0,1.1,0.1,1.6,0.2L310.8,966.4z"/>
</g>
<g>
	<path d="M382.8,1775.7v-14h7.3v0.9h-6.3v5.5h5l-0.2,0.9h-4.8v5.8h6.3v0.9H382.8z"/>
	<path d="M396.2,1775.7h-1.5l-3.4-10.1h1.1l3,9.5h0l3-9.5h1.1L396.2,1775.7z"/>
	<path d="M407.6,1775.7l-0.2-1.4c-0.6,0.8-1.8,1.6-3.2,1.6c-2.1,0-3.2-1.4-3.2-3c0-1.7,1.2-2.8,3.5-2.8h2.9v-1c0-2-0.8-2.9-2.5-2.9
		c-1.3,0-2.4,0.4-3.1,0.7l-0.3-0.8c0.7-0.3,1.8-0.7,3.5-0.7c2.2,0,3.4,1.2,3.4,3.5v6.8H407.6z M407.3,1770.8h-2.8
		c-2,0-2.6,0.9-2.6,2c0,1.3,0.7,2.3,2.4,2.3c1.2,0,2.3-0.7,2.9-1.6V1770.8z"/>
	<path d="M411.3,1773.9v-12.5h1v12.4c0,0.8,0.3,1.3,1.3,1.3l0.7,0v0.6c0,0-0.4,0.1-0.8,0.1C412,1775.9,411.3,1775.2,411.3,1773.9z"
		/>
	<path d="M422.9,1775.7l-0.1-1.1c-0.5,0.5-1.7,1.3-3.1,1.3c-2.1,0-3.4-1.3-3.4-4.1v-6.3h1v6.1c0,2.4,0.7,3.4,2.5,3.4
		c1.1,0,2.1-0.6,2.9-1.2v-8.3h1v10.1H422.9z"/>
	<path d="M432.8,1775.7l-0.2-1.4c-0.6,0.8-1.8,1.6-3.2,1.6c-2.1,0-3.2-1.4-3.2-3c0-1.7,1.2-2.8,3.5-2.8h2.9v-1c0-2-0.8-2.9-2.5-2.9
		c-1.3,0-2.4,0.4-3.1,0.7l-0.3-0.8c0.7-0.3,1.8-0.7,3.5-0.7c2.2,0,3.4,1.2,3.4,3.5v6.8H432.8z M432.5,1770.8h-2.8
		c-2,0-2.6,0.9-2.6,2c0,1.3,0.7,2.3,2.4,2.3c1.2,0,2.3-0.7,2.9-1.6V1770.8z"/>
	<path d="M443.5,1775c-0.6,0.4-1.8,0.9-3.3,0.9c-2.4,0-4.2-1.4-4.2-5.3c0-3.5,1.9-5.3,4.2-5.3c1.1,0,2.3,0.2,3.2,0.8l-0.3,0.8
		c-0.8-0.5-1.8-0.7-2.9-0.7c-2,0-3.2,1.7-3.2,4.4c0,3.1,1.2,4.5,3.3,4.5c1.3,0,2.3-0.4,3-0.9L443.5,1775z"/>
	<path d="M446.5,1775.7v-9.3l-1.1-0.2v-0.7h2.1v10.1H446.5z M446.4,1761.6h1.1v1.3h-1.1V1761.6z"/>
	<path d="M454.2,1775.9c-2.6,0-4.1-1.9-4.1-5.3c0-3,1.3-5.2,4.1-5.2c2.7,0,4.2,2.2,4.2,5.2C458.4,1774,456.8,1775.9,454.2,1775.9z
		 M454.2,1766.1c-2.2,0-3.1,1.8-3.1,4.5c0,2.6,0.7,4.5,3.1,4.5c2.3,0,3.1-1.7,3.1-4.5C457.4,1767.8,456.4,1766.1,454.2,1766.1z
		 M452.2,1764l-0.2-0.6l4.3-1.8l0.3,0.8L452.2,1764z"/>
	<path d="M467.4,1775.7v-6.2c0-2.1-0.6-3.3-2.6-3.3c-1.2,0-2.2,0.7-2.8,1.4v8.1h-1v-10.1h0.7l0.3,1.2c0.6-0.6,1.6-1.4,3.2-1.4
		c2.3,0,3.4,1.4,3.4,3.9v6.5H467.4z"/>
</g>
<g>
	<path d="M407.5,1935.9c-3.7,0-5.5-3-5.5-7.3c0-4.6,2.3-7.1,5.6-7.1c1.6,0,3.1,0.4,4.1,1.1l-0.4,0.8c-0.8-0.7-2.3-1-3.7-1
		c-3.1,0-4.5,2.6-4.5,6.1c0,3.8,1.5,6.4,4.5,6.4c1.6,0,2.9-0.6,3.9-1.3l0.3,0.8C410.7,1935.2,409.3,1935.9,407.5,1935.9z"/>
	<path d="M420.4,1935.6l-0.1-1.1c-0.5,0.5-1.7,1.3-3.1,1.3c-2.1,0-3.4-1.3-3.4-4.1v-6.3h1v6.1c0,2.4,0.7,3.4,2.5,3.4
		c1.1,0,2.1-0.6,2.9-1.2v-8.3h1v10.1H420.4z"/>
	<path d="M427.8,1935.9c-2.6,0-4.1-1.9-4.1-5.3c0-3,1.3-5.2,4.1-5.2c2.7,0,4.2,2.2,4.2,5.2C432,1934,430.3,1935.9,427.8,1935.9z
		 M427.8,1926.1c-2.2,0-3.1,1.8-3.1,4.5c0,2.6,0.7,4.5,3.1,4.5c2.3,0,3.1-1.7,3.1-4.5C430.9,1927.8,430,1926.1,427.8,1926.1z"/>
	<path d="M437.7,1935.9c-1.2,0-2.4-0.5-2.4-2.7v-7h-1.6v-0.7h1.6v-1.9l1-0.3v2.2h3.1v0.7h-3.1v7c0,1.3,0.4,1.8,1.5,1.8
		c0.6,0,1.4-0.3,1.7-0.5l0.2,0.7C439.5,1935.5,438.5,1935.9,437.7,1935.9z"/>
	<path d="M448.2,1935.6l-0.2-1.4c-0.6,0.8-1.8,1.6-3.2,1.6c-2.1,0-3.2-1.4-3.2-3c0-1.7,1.2-2.8,3.5-2.8h2.9v-1c0-2-0.8-2.9-2.5-2.9
		c-1.3,0-2.4,0.4-3.1,0.7l-0.3-0.8c0.7-0.3,1.8-0.7,3.5-0.7c2.2,0,3.4,1.2,3.4,3.5v6.8H448.2z M447.9,1930.8h-2.8
		c-2,0-2.6,0.9-2.6,2c0,1.3,0.7,2.3,2.4,2.3c1.2,0,2.3-0.7,2.9-1.6V1930.8z"/>
</g>
<rect x="301.9" y="1948.8" class="st2" width="249.4" height="239.7"/>
<rect x="301.8" y="1793.3" class="st2" width="248.5" height="4.1"/>
<rect x="301.8" y="1803.7" class="st2" width="248.5" height="4.1"/>
<g>
	<path class="st3" d="M541.9,978.7c-1.9,0.8-3.1,1.1-4.6,1.1c-3.7,0-5.9-2.9-5.9-7.4c0-4,2.1-7,6.1-7c1.7,0,3,0.4,4.1,1l-0.7,1.2
		c-0.8-0.5-2-0.8-3.4-0.8c-2.9,0-4.5,2.5-4.5,5.6c0,3.6,1.5,6,4.4,6c1.1,0,2-0.1,2.9-0.5V974H538l-0.1-1.3h4V978.7z"/>
	<path class="st3" d="M545.2,979.5v-8.9l-1.1-0.2v-1h2.7v10.1H545.2z M545.1,965.4h1.7v1.7h-1.7V965.4z"/>
	<path class="st3" d="M555.2,966.4c-0.3-0.1-0.8-0.2-1.3-0.2c-1.4,0-2,0.8-2,2.4v0.8h2.4v1.2H552v8.9h-1.6v-8.9h-1.6v-1.2h1.6v-0.9
		c0-2.3,1.1-3.6,3.4-3.6c0.5,0,1.1,0.1,1.6,0.2L555.2,966.4z"/>
</g>
<g>
	<path class="st3" d="M410.6,2079.7c-1.9,0.8-3.1,1.1-4.6,1.1c-3.7,0-5.9-2.9-5.9-7.4c0-4,2.1-7,6.1-7c1.7,0,3,0.4,4.1,1l-0.7,1.2
		c-0.8-0.5-2-0.8-3.4-0.8c-2.9,0-4.5,2.5-4.5,5.6c0,3.6,1.5,6,4.4,6c1.1,0,2-0.1,2.9-0.5v-3.9h-2.3l-0.1-1.3h4V2079.7z"/>
	<path class="st3" d="M418.3,2071.8c-0.3-0.1-0.7-0.2-1.3-0.2c-1,0-1.8,0.6-2.3,1.1v7.9h-1.6v-10.1h1.1l0.3,1.3
		c0.4-0.6,1.3-1.4,2.6-1.4c0.7,0,1.2,0.1,1.3,0.2L418.3,2071.8z"/>
	<path class="st3" d="M426.5,2080.6l-0.3-1.3c-0.6,0.8-1.7,1.5-3.1,1.5c-2.1,0-3.3-1.4-3.3-3.1c0-1.8,1.3-2.9,3.6-2.9h2.6v-0.8
		c0-1.8-0.8-2.5-2.3-2.5c-1.3,0-2.3,0.3-3.1,0.7l-0.4-1.1c0.8-0.4,2-0.8,3.7-0.8c2.4,0,3.6,1.2,3.6,3.7v6.7H426.5z M426,2075.9h-2.4
		c-1.7,0-2.3,0.7-2.3,1.8c0,1.2,0.7,2,2.1,2c1,0,1.9-0.6,2.5-1.3V2075.9z M421.6,2068.9l-0.2-0.9l4.6-1.7l0.3,1.2L421.6,2068.9z"/>
	<path class="st3" d="M436.9,2080.6v-8.9h-4.2v8.9h-1.6v-8.9h-1.6v-1.2h1.6v-0.9c0-2.3,1.1-3.6,3.3-3.6c0.5,0,1,0.1,1.5,0.2v1.3
		c-0.3-0.1-0.9-0.2-1.4-0.2c-1.4,0-1.9,0.8-1.9,2.4v0.8h5.8v10.1H436.9z M436.7,2066.4h1.7v1.7h-1.7V2066.4z"/>
	<path class="st3" d="M448.7,2079.9c-0.6,0.4-1.9,0.9-3.4,0.9c-2.6,0-4.4-1.5-4.4-5.3c0-3.4,1.9-5.3,4.4-5.3c1.2,0,2.4,0.2,3.3,0.8
		l-0.5,1.1c-0.8-0.5-1.7-0.7-2.8-0.7c-1.8,0-2.9,1.4-2.9,4c0,2.9,1.1,4.1,2.9,4.1c1.2,0,2.2-0.4,2.9-0.8L448.7,2079.9z"/>
	<path class="st3" d="M459.1,2075.5c0,3.4-1.7,5.3-4.4,5.3c-2.8,0-4.3-1.8-4.3-5.3c0-3,1.4-5.3,4.3-5.3
		C457.5,2070.2,459.1,2072.5,459.1,2075.5z M457.5,2075.5c0-2.7-0.9-4.1-2.8-4.1c-1.9,0-2.7,1.5-2.7,4.1c0,2.5,0.7,4.1,2.7,4.1
		C456.7,2079.6,457.5,2078.2,457.5,2075.5z"/>
</g>
<path class="st4" d="M216.5,1518.8c17.3,23.1,43.6,16.7,51.6,16.5c8-0.2,26.2-8.7,32-26.8s8.5-38.2,8.5-38.2l35.5,1.9
	c0,0,0,6.2,5,6.2c5,0,8.7,0.6,12.2,1.4c3.5,0.8,4.7,1.2,8-1.6c3.3-2.7,5.8-3.7,5.8-3.7l6,3.1c0,0-3.5,3.3-5,9.1s0.8,14,0.8,14
	s-5,3.1-1.9,13.4c3.1,10.3,2.9,7,3.9,14.5c1,7.6-1.9,7.4-0.2,11.4c1.7,4.1,1.7,6.4,3.5,8.5c1.7,2.1,1,1.4,1,1.4l-5.4,21.5
	c0,0-5.6-1.7-7.8,2.9c-2.1,4.7-3.5,6.4-3.5,6.4s-6.4,2.5-9.9,9.3c-3.5,6.8-2.9,11.3-2.9,11.3s-6.2,4.5-7.8,17.1
	c-1.6,12.6-0.6,40-0.6,40s-2.7,1-3.5,6c-0.8,5-0.8,6-0.8,6s-6.6,2.7-6.6,6.4s-4.1,10.9-6.6,17.3c-2.5,6.4-0.6,14.5-0.4,15.3
	c0.2,0.8-2.1,3.3,8,3.7c10.1,0.4,22.1,1,22.1-1.6s-1-8.1-1.9-12.6c-1-4.5,0.6-6.6,3.5-12.8c2.9-6.2,3.9-4.3,3.5-10.5
	c-0.4-6.2-1.2-9.7,2.3-14.9c3.5-5.2,2.5-5,10.5-10.5c8-5.4,8.9-6.8,8.9-6.8s11.6,2.9,21.1-1.2c9.5-4.1,19.4,5,31.6,6
	c12.2,1,27.9,1.4,27.9,1.4l-11.6,7.4c0,0-5,2.9-6.2,2.7c-1.2-0.2-4.8-2.9-10.9,3.7c-6,6.6-9.3,13.6-12.4,14.7s-1.7,8.3,5,12.2
	c6.8,3.9,20.9,10.1,24.1,14.5s7.4,6.8,13.8,6.8s22.9,0,22.9,0s2.9-6.2-1.7-9.1c-4.7-2.9-9.1-5.2-9.5-8c-0.4-2.7,4.5-2.7-0.4-6.6
	c-4.8-3.9-6.4-7-6.4-7.6s-0.2-6.2-0.2-6.2s17.7-7,30.1-11.6c12.4-4.7,29.7-6,38.2-13.4c8.5-7.4,10.7-18.8,7.2-26.4
	c-3.5-7.6-11.3-17.7-27.2-22.9c-15.9-5.2-37-9.3-48.5-9.1c-11.4,0.2-13.8,0.2-13.8,0.2s2.3-3.1,1.2-8.1c-1.2-5-6-4.8-6-4.8l0.4-12.4
	c0,0,5.4-1.2,6-7.6c0.6-6.4,0-10.3,0.4-12s-1.4-3.9,4.3-7c5.6-3.1,13.8-6.8,14.4-14.2c0.6-7.4-0.2-11.3-0.2-11.3
	s17.8,11.6,29.7,13.4c11.8,1.7,29.3,1.9,34.9-4.3c5.6-6.2,5.6-10.3,3.5-13.8c-2.1-3.5-4.1-13.2-5.2-17.1s-1.2-3.9-1.2-3.9l13.6,2.1
	c0,0-3.7,35.5,13.4,53c17.1,17.5,36.5,15.9,46.9,15.7c10.5-0.2,29.5-11.1,36.3-33.2c6.8-22.1,11.6-72-6.2-87.7
	c-17.8-15.7-44.4-13.4-53.3-10.3c-8.9,3.1-23.5,17.7-28.5,31.2c-5,13.6-6.4,23.3-6.4,23.3l-18.4-2.7c0,0-9.3-8-12-10.3
	c-2.7-2.3-8.5-3.3-10.9-3.3s-4.7,3.1-8.1,3.7c-3.5,0.6-5.2,6.4-5.2,6.4l-45.2-4.3l-10.7-5.2c0,0-2.5-6.6-4.7-12.6
	c-2.1-6,1.2-8.1,3.1-13c1.9-4.8,2.7-16.3-0.4-18.8c-3.1-2.5-3.5-3.1-4.8-5.2c-1.4-2.1-1.7-5-4.5-6.8c-2.7-1.7-1.9-1.9-5.2-4.3
	c-3.3-2.3-4.1-3.5-6.2-4.7c-2.1-1.2-2.3-2.5-6.8-2.7c-4.5-0.2-7.8,0.6-9.1,0.2c-1.4-0.4-2.5-2.1-5.4-0.4c-2.9,1.7-6,4.7-6.6,4.7
	s-4.1,3.3-4.1,3.3c-2.1,1.6-4.7,3.7-5.6,7c-1,3.3-1,7.4-2.1,9.3c-1.2,1.9-3.5,5-1.9,7c1.6,1.9,1.9,1,1.6,3.1
	c-0.4,2.1-1.4,1.2-0.6,3.9c0.8,2.7-1.7,3.1,1.2,4.7c2.9,1.6,4.3,5,4.3,5s-3.9-1.2-6.8,0.8c-2.9,1.9-4.5,4.8-4.5,4.8
	s-5.2-2.7-9.7,1.7c-4.5,4.5-6.4,7.6-6.4,7.6s-3.3-2.5-6-1c-2.7,1.6-3.7,4.3-3.7,4.3l-40.9-2.1c0,0-1-41.7-16.9-55.3
	c-15.9-13.6-32.8-13.6-48.5-12.2c-15.7,1.4-28.1,14.2-34.1,35.5S199.2,1495.7,216.5,1518.8z M387.6,1456.6c0,0,0.7-2.9,2-5.1
	c1.3-2.2,3.2-2,3.2-2s0.7,2.3,3.3,3.8c2.6,1.5,6,1,6.7,4.2c0.7,3.2,0.1,4.7,0.1,4.7l-4.1,2.5l-3.6-2c0,0,0-3.6-1.9-5.7
	C391.5,1454.8,387.6,1456.6,387.6,1456.6z"/>
</svg>
